<svg id="Capa_1" enable-background="new 0 0 512 512" height="512" viewBox="0 0 512 512" width="512" xmlns="http://www.w3.org/2000/svg" xmlns:xlink="http://www.w3.org/1999/xlink"><linearGradient id="SVGID_1_" gradientUnits="userSpaceOnUse" x1="256" x2="256" y1="512" y2="0"><stop offset="0" stop-color="#ffbef9"/><stop offset="1" stop-color="#fff1ff"/></linearGradient><linearGradient id="SVGID_2_" gradientUnits="userSpaceOnUse" x1="256.004" x2="256.004" y1="131.65" y2="380.35"><stop offset="0" stop-color="#a93aff"/><stop offset="1" stop-color="#ff81ff"/></linearGradient><g><g><circle cx="256" cy="256" fill="url(#SVGID_1_)" r="256"/></g><g><g><path d="m291.532 344.821h-177.643c-4.905 0-8.882 3.976-8.882 8.882 0 14.717 11.93 26.646 26.646 26.646h142.114c14.716 0 26.646-11.93 26.646-26.646.001-4.906-3.976-8.882-8.881-8.882zm-88.821-195.407c-53.874 0-97.703 43.83-97.703 97.704 0 33.04 16.527 62.248 41.704 79.939h111.998c25.177-17.692 41.704-46.899 41.704-79.939 0-53.874-43.829-97.704-97.703-97.704zm-40.282 75.186 17.764-17.764c3.469-3.469 9.09-3.469 12.56 0 3.47 3.47 3.47 9.09 0 12.56l-17.764 17.764c-3.47 3.469-9.09 3.469-12.56 0-3.47-3.47-3.47-9.09 0-12.56zm80.564 45.035-17.765 17.765c-3.469 3.47-9.09 3.47-12.56 0-3.47-3.469-3.47-9.09 0-12.56l17.764-17.764c3.47-3.47 9.09-3.47 12.56 0 3.47 3.469 3.47 9.09.001 12.559zm1.526-51.766-71.057 71.057c-3.47 3.47-9.09 3.47-12.56 0-3.47-3.469-3.47-9.09 0-12.56l71.057-71.057c3.469-3.469 9.09-3.469 12.56 0 3.47 3.47 3.47 9.091 0 12.56zm159.878-65.852c-.833-.833-20.809-20.366-59.573-20.366s-58.74 19.534-59.573 20.366c-2.992 2.992-3.461 7.685-1.11 11.207l26.322 39.484h68.721l26.322-39.484c2.352-3.522 1.884-8.215-1.109-11.207zm-77.319 219.945c.26 4.701 4.155 8.388 8.865 8.388h17.764c4.71 0 8.604-3.686 8.865-8.388l6.442-115.962h-48.379zm-7.429-133.726h50.352l.987-17.764h-52.326z" fill="url(#SVGID_2_)"/></g></g></g></svg>